<?xml version="1.0" encoding="UTF-8"?>
<svg width="40px" height="40px" viewBox="0 0 40 40" version="1.1" xmlns="http://www.w3.org/2000/svg" xmlns:xlink="http://www.w3.org/1999/xlink">
    <!-- Generator: Sketch 59.1 (86144) - https://sketch.com -->
    <title>logo / Auto</title>
    <desc>Created with Sketch.</desc>
    <g id="logo-/-Auto" stroke="none" stroke-width="1" fill="none" fill-rule="evenodd">
        <path d="M26.7377899,8 C27.8548979,8.68025058 28.8694934,9.5168968 29.7524852,10.4806321 C20.4485166,12.0713589 14.2625869,18.4131316 14.5956136,25.2483255 C14.7499363,28.416253 16.182062,31.479635 18.5822371,34 C13.3682356,33.5857629 8.96934603,30.2191707 7,25.5428002 C7.12966431,16.2579715 15.7648089,9.52506882 26.7377899,8 M30.1298416,10.9095225 C30.8621125,11.7774478 31.4921481,12.7383652 32,13.7722671 C26.3463035,15.3565127 23.4210987,19.5543971 23.6463489,24.174127 C23.7776756,26.8807578 25.4259085,29.327011 28.0701739,31.1375371 C26.1282568,32.6589426 23.7762903,33.664947 21.2123724,33.9554766 C18.622965,31.571218 16.9231988,28.6202718 16.6647014,25.3787961 C16.0917403,18.1893872 22.1870712,12.7186396 30.1298416,10.9095225" id="Fill-9" fill="#002D5F"></path>
        <path d="M20.0001411,2.98427949e-13 C31.04529,2.98427949e-13 40,8.95458362 40,20.0004233 C40,31.0482386 31.04529,40 20.0001411,40 C8.95442775,40 -4.24904556e-12,31.0482386 -4.24904556e-12,20.0004233 C-4.24904556e-12,8.95458362 8.95442775,2.98427949e-13 20.0001411,2.98427949e-13 Z M19.8883093,5.0094545 C11.7120813,5.0094545 5.08414542,11.6376095 5.08414542,19.8136925 C5.08414542,27.9903417 11.7120813,34.6173645 19.8883093,34.6173645 C28.0645374,34.6173645 34.6924732,27.9903417 34.6924732,19.8136925 C34.6924732,11.6376095 28.0645374,5.0094545 19.8883093,5.0094545 Z" id="Combined-Shape" fill="#FF6633"></path>
    </g>
</svg>